<svg width="480" height="380" viewBox="0 0 480 380" fill="none" xmlns="http://www.w3.org/2000/svg">
<rect width="480" height="380" rx="35" fill="white"/>
<path d="M216.976 170C215.824 168.095 212.924 166.472 211.071 165.661C210.646 165.475 210.145 165.412 209.756 165.667C209.314 165.956 209.123 166.422 210.114 167.027C211.544 167.901 211.872 168.822 211.773 169.368C211.312 170.353 212.156 170.907 213.187 171.2C214.158 171.476 214.986 172.186 215.402 173.107C216.774 176.143 220.043 178.563 221.736 179.317C223.564 180.433 224.801 182.422 225.373 183.662C225.542 184.03 225.548 184.444 225.563 184.848C225.638 186.929 228.005 189.044 229.498 190.055C229.682 190.179 229.836 190.348 229.88 190.566C230.147 191.892 229.55 194.833 229.187 196.249C228.974 198.006 227.794 198.149 227.049 197.965C226.884 197.925 226.745 197.819 226.62 197.703C225.854 196.997 225.066 197.09 224.488 197.384C224.046 197.61 223.519 197.715 223.044 197.572C221.027 196.963 220.335 198.55 220.246 199.526C219.882 201.195 221.118 201.908 222.253 202.152C222.8 202.269 223.235 202.707 223.527 203.185C224.101 204.124 225.302 204.122 226.047 203.94C226.154 203.914 226.262 203.896 226.372 203.896H226.802C226.994 203.896 227.179 203.968 227.321 204.098C227.549 204.307 227.879 204.359 228.16 204.23L228.889 203.896C229.842 203.459 230.677 204.078 230.975 204.442C231.829 205.812 231.472 210.643 231.103 213.599C231.034 214.145 230.558 214.531 230.028 214.679C228.571 215.084 227.552 216.325 228.293 217.005C229.485 217.823 231.869 217.095 232.763 216.185C233.299 215.639 233.538 212.634 234.253 212.634C234.877 212.634 234.866 213.675 234.853 214.848L234.852 214.878C234.849 215.189 234.713 215.484 234.495 215.706C232.484 217.747 234.908 217.537 236.041 217.277C239.021 217.005 238.425 214.001 237.829 212.908C235.46 208.567 234.372 203.75 234.037 201.316C233.979 200.891 234.196 200.485 234.543 200.232C237.987 197.723 237.768 193.218 236.637 191.333C235.544 189.512 233.658 184.9 235.091 184.357C236.777 183.718 240.213 178.77 240.511 177.405C240.75 176.312 243.446 171.702 245.036 169.79C246.093 169.12 246.59 167.918 247.639 167.028C248.204 166.549 249.308 165.31 249.499 164.595C249.965 162.852 248.631 164.114 247.06 165C246.458 165.339 245.762 165.58 245.036 165.569C244.215 165.569 243.668 166.262 243.393 167.092C243.093 167.997 242.585 168.899 241.806 169.449C239.414 171.14 237.643 174.153 236.637 175.69C236.16 176.345 232.962 179.499 231.869 180.956C231.392 181.592 231.074 181.038 230.975 180.682C229.257 178.317 225.325 176.256 222.729 175.371C222.526 175.301 222.347 175.18 222.202 175.022C221.34 174.081 219.162 172.066 217.781 170.969C217.449 170.706 217.195 170.362 216.976 170Z" fill="black"/>
<path d="M306.552 217.439C303.921 217.439 301.504 217.009 299.3 216.149C297.129 215.289 295.255 214.111 293.676 212.615C292.097 211.087 290.864 209.272 289.976 207.17C289.121 205.069 288.693 202.793 288.693 200.341C288.693 198.08 289.088 195.915 289.877 193.846C290.667 191.744 291.818 189.898 293.331 188.306C294.876 186.714 296.768 185.456 299.004 184.533C301.274 183.578 303.872 183.1 306.799 183.1C308.016 183.1 309.266 183.196 310.549 183.387C311.864 183.578 313.13 183.88 314.347 184.294C315.597 184.676 316.781 185.217 317.9 185.918C318.437 186.23 318.953 186.573 319.447 186.948C320.405 187.673 320.434 189.054 319.636 189.951C318.754 190.943 317.223 190.948 316.148 190.171C315.914 190.002 315.676 189.842 315.433 189.691C314.545 189.118 313.607 188.656 312.621 188.306C311.634 187.924 310.647 187.653 309.661 187.494C308.674 187.335 307.704 187.255 306.75 187.255C304.711 187.255 302.869 187.621 301.224 188.354C299.58 189.054 298.182 190.009 297.031 191.219C295.88 192.429 295.008 193.83 294.416 195.422C293.824 196.982 293.528 198.638 293.528 200.389C293.528 202.267 293.857 204.002 294.515 205.594C295.205 207.155 296.143 208.508 297.327 209.654C298.511 210.8 299.909 211.692 301.52 212.328C303.165 212.965 304.941 213.284 306.848 213.284C308.46 213.284 309.989 213.077 311.437 212.663C312.884 212.249 314.15 211.596 315.235 210.705C316.354 209.813 317.258 208.667 317.949 207.266C318.53 206.114 318.931 204.798 319.152 203.317C319.213 202.907 319.738 202.741 320.007 203.058C320.266 203.361 320.05 203.827 319.652 203.827H308.259C307.099 203.827 306.158 202.887 306.158 201.726C306.158 200.565 307.099 199.625 308.259 199.625H318.183C321.323 199.625 323.999 202.216 323.228 205.26C322.833 206.916 322.257 208.412 321.501 209.749C320.777 211.055 319.889 212.201 318.837 213.188C317.784 214.143 316.617 214.939 315.334 215.576C314.051 216.213 312.67 216.69 311.19 217.009C309.71 217.295 308.164 217.439 306.552 217.439Z" fill="black"/>
<path d="M332.146 216.862C330.438 216.862 329.259 215.151 329.867 213.555L340.073 186.783C340.919 184.566 343.046 183.1 345.419 183.1C347.784 183.1 349.905 184.555 350.757 186.761L361.032 213.383C361.679 215.059 360.442 216.862 358.646 216.862C357.57 216.862 356.61 216.19 356.242 215.179L347.272 190.533C346.971 189.707 346.185 189.157 345.306 189.157C344.424 189.157 343.637 189.71 343.338 190.54L334.44 215.25C334.092 216.217 333.174 216.862 332.146 216.862ZM337.467 207.214C335.648 207.214 334.617 205.131 335.719 203.684C336.135 203.139 336.781 202.819 337.467 202.819H353.14C353.826 202.819 354.472 203.139 354.888 203.684C355.99 205.131 354.959 207.214 353.14 207.214H337.467Z" fill="black"/>
<path d="M266.941 213.331C268.68 213.331 270.295 213.013 271.786 212.376C273.277 211.739 274.567 210.848 275.654 209.702C276.772 208.524 277.642 207.139 278.263 205.547C278.884 203.955 279.195 202.204 279.195 200.293C279.195 198.351 278.884 196.584 278.263 194.992C277.642 193.4 276.788 192.031 275.7 190.885C274.613 189.739 273.324 188.847 271.833 188.21C270.342 187.542 268.711 187.207 266.941 187.207C265.17 187.207 263.539 187.526 262.048 188.163C260.557 188.799 259.268 189.707 258.181 190.885C257.094 192.031 256.24 193.4 255.618 194.992C254.997 196.584 254.687 198.351 254.687 200.293C254.687 202.204 254.982 203.955 255.572 205.547C256.193 207.139 257.047 208.524 258.135 209.702C259.253 210.848 260.557 211.739 262.048 212.376C263.539 213.013 265.17 213.331 266.941 213.331ZM266.941 217.439C264.425 217.439 262.126 217.009 260.045 216.149C257.995 215.289 256.24 214.095 254.78 212.567C253.32 211.007 252.186 209.176 251.378 207.075C250.571 204.974 250.167 202.697 250.167 200.245C250.167 197.826 250.571 195.581 251.378 193.511C252.186 191.41 253.32 189.595 254.78 188.067C256.24 186.507 257.995 185.297 260.045 184.437C262.095 183.546 264.394 183.1 266.941 183.1C269.457 183.1 271.74 183.53 273.79 184.39C275.84 185.249 277.595 186.459 279.055 188.019C280.546 189.548 281.68 191.362 282.456 193.464C283.264 195.565 283.668 197.858 283.668 200.341C283.668 202.761 283.264 205.021 282.456 207.123C281.68 209.192 280.562 210.991 279.102 212.519C277.642 214.048 275.871 215.258 273.79 216.149C271.74 217.009 269.457 217.439 266.941 217.439Z" fill="black"/>
<path d="M174.141 216.862C172.432 216.862 171.254 215.151 171.862 213.555L182.068 186.783C182.914 184.566 185.041 183.1 187.414 183.1C189.779 183.1 191.9 184.555 192.751 186.761L203.027 213.383C203.674 215.059 202.437 216.862 200.641 216.862C199.565 216.862 198.604 216.19 198.237 215.179L189.266 190.533C188.966 189.707 188.18 189.157 187.301 189.157C186.419 189.157 185.632 189.71 185.333 190.54L176.435 215.25C176.087 216.217 175.169 216.862 174.141 216.862ZM179.462 207.214C177.643 207.214 176.611 205.131 177.714 203.684C178.13 203.139 178.776 202.819 179.462 202.819H195.135C195.82 202.819 196.467 203.139 196.882 203.684C197.985 205.131 196.953 207.214 195.135 207.214H179.462Z" fill="#2C5140"/>
<path d="M119.647 216.601C118.211 216.601 117.07 215.392 117.154 213.958L119.788 168.73C119.92 166.453 121.805 164.675 124.086 164.675C125.491 164.675 126.808 165.361 127.614 166.512L141.938 186.989C142.307 187.516 141.944 188.243 141.301 188.265C140.639 188.287 140.231 187.55 140.6 187.001L154.314 166.596C155.122 165.395 156.474 164.675 157.921 164.675C160.204 164.675 162.097 166.442 162.255 168.719L165.391 213.93C165.491 215.374 164.346 216.601 162.899 216.601C161.589 216.601 160.501 215.589 160.407 214.283L157.359 172.036C157.351 171.915 157.412 171.8 157.518 171.74C157.814 171.572 158.129 171.928 157.925 172.201L142.586 192.78C142.234 193.253 141.678 193.531 141.088 193.531C140.506 193.531 139.958 193.26 139.604 192.798L123.969 172.339C123.728 172.024 124.079 171.601 124.433 171.779C124.567 171.846 124.648 171.986 124.639 172.135L122.141 214.251C122.063 215.571 120.97 216.601 119.647 216.601Z" fill="#2C5140"/>
</svg>
